<svg version="1.2" xmlns="http://www.w3.org/2000/svg" viewBox="0 0 595 595" width="595" height="595"><defs><clipPath clipPathUnits="userSpaceOnUse" id="cp1"><path d="m0.31 0h594.78v594.78h-594.78z"/></clipPath><clipPath clipPathUnits="userSpaceOnUse" id="cp2"><path d="m297.7 0c-164.24 0-297.39 133.14-297.39 297.39 0 164.24 133.15 297.39 297.39 297.39 164.25 0 297.39-133.15 297.39-297.39 0-164.25-133.14-297.39-297.39-297.39z"/></clipPath><clipPath clipPathUnits="userSpaceOnUse" id="cp3"><path d="m111.8 65.25h397.91v469.75h-397.91z"/></clipPath></defs><style>.a{fill:#4bc1a3}.b{fill:#b8bd5f}.c{fill:#517c9c}.d{fill:#bfdde5}</style><g clip-path="url(#cp1)"><g clip-path="url(#cp2)"><path class="a" d="m0.3 0h594.8v594.8h-594.8z"/></g></g><g clip-path="url(#cp3)"><path class="b" d="m146.5 364l-34.7-212.7 16.6-23.8 126.7-52.3 52 25.1 134.6-34.9 68 54.5-105.6 332-170 83-104.2-25.8z"/></g><path class="c" d="m428.8 104.2q-21.5 0-50 16.7-0.2 0.2-0.5 0.3-0.2 0.2-0.5 0.3-0.2 0.2-0.4 0.3-0.3 0.1-0.5 0.3-0.3 0.1-0.5 0.3-0.3 0.1-0.5 0.3-0.2 0.1-0.5 0.2-0.2 0.2-0.5 0.3-0.2 0.2-0.5 0.3-0.2 0.2-0.4 0.3-0.3 0.1-0.5 0.3-0.3 0.1-0.5 0.3-0.3 0.1-0.5 0.3-0.2 0.1-0.5 0.2-0.2 0.2-0.5 0.3-0.2 0.2-0.5 0.3-0.2 0.2-0.4 0.3-0.3 0.1-0.5 0.3-0.3 0.1-0.5 0.3-0.3 0.1-0.5 0.3-0.2 0.1-0.5 0.2-0.2 0.2-0.5 0.3-0.2 0.2-0.5 0.3-0.2 0.2-0.4 0.3-0.3 0.1-0.5 0.3-0.3 0.1-0.5 0.3-0.3 0.1-0.5 0.2-0.2 0.2-0.5 0.3-0.2 0.2-0.5 0.3-0.2 0.2-0.5 0.3-0.2 0.1-0.4 0.3-0.3 0.1-0.5 0.3-0.3 0.1-0.5 0.3-0.3 0.1-0.5 0.2-0.2 0.2-0.5 0.3-0.2 0.2-0.5 0.3-0.2 0.1-0.5 0.3-0.2 0.1-0.4 0.3-0.3 0.1-0.5 0.3-0.3 0.1-0.5 0.2-0.3 0.2-0.5 0.3-0.2 0.2-0.5 0.3-0.2 0.2-0.5 0.3-0.2 0.1-0.4 0.3-0.3 0.1-0.5 0.3-0.3 0.1-0.5 0.3-0.3 0.1-0.5 0.2-0.2 0.2-0.5 0.3-0.2 0.2-0.5 0.3-0.2 0.1-0.5 0.3-0.2 0.1-0.4 0.3-0.3 0.1-0.5 0.3-0.3 0.1-0.5 0.2-0.3 0.2-0.5 0.3-0.2 0.2-0.5 0.3-0.2 0.2-0.5 0.3-0.2 0.1-0.5 0.3-0.2 0.1-0.4 0.3-0.3 0.1-0.5 0.2-0.3 0.2-0.5 0.3-0.2 0.2-0.5 0.3-0.2 0.2-0.5 0.3-0.2 0.1-0.5 0.3-0.2 0.1-0.4 0.3-0.3 0.1-0.5 0.3-0.3 0.1-0.5 0.2-0.3 0.2-0.5 0.3-0.2 0.2-0.5 0.3-0.2 0.2-0.5 0.3-0.2 0.1-0.5 0.3-0.2 0.1-0.4 0.3-0.3 0.1-0.5 0.3-0.3 0.1-0.5 0.2-0.3 0.2-0.5 0.3-0.2 0.2-0.5 0.3-0.2 0.2-0.5 0.3-0.2 0.1-0.5 0.3-0.2 0.1-0.4 0.3-0.3 0.1-0.5 0.3-0.3 0.1-0.5 0.2-0.2 0.2-0.5 0.3-0.2 0.2-0.5 0.3-0.2 0.2-0.5 0.3-0.2 0.1-0.5 0.3-0.2 0.1-0.4 0.3-0.3 0.1-0.5 0.3-0.3 0.1-0.5 0.2-0.3 0.2-0.5 0.3-0.2 0.2-0.5 0.3-0.2 0.1-0.5 0.3-0.2 0.1-0.5 0.3-0.2 0.1-0.4 0.3-0.3 0.1-0.5 0.2-0.3 0.2-0.5 0.3-0.3 0.2-0.5 0.3-0.2 0.2-0.5 0.3-0.2 0.1-0.5 0.3-0.2 0.1-0.5 0.3-0.2 0.1-0.4 0.3-0.3 0.1-0.5 0.2-2 1.2-3.9 2.4 6.5 13.1 6.5 28 0 29.6-20.2 94.1-0.3-62.2-7.5-99.3-4.8-23.2-12.4-37.9-7.7-14.6-20.4-23.6-12.7-9-29.8-9-22.7 0-39.7 10-0.3 0.1-0.5 0.3-0.3 0.1-0.5 0.3-0.3 0.1-0.5 0.2-0.2 0.2-0.5 0.3-0.2 0.2-0.5 0.3-0.2 0.2-0.5 0.3-0.2 0.1-0.4 0.3-0.3 0.1-0.5 0.3-0.3 0.1-0.5 0.3-0.3 0.1-0.5 0.2-0.2 0.2-0.5 0.3-0.2 0.2-0.5 0.3-0.2 0.2-0.5 0.3-0.2 0.1-0.4 0.3-0.3 0.1-0.5 0.3-0.3 0.1-0.5 0.2-0.3 0.2-0.5 0.3-0.2 0.2-0.5 0.3-0.2 0.2-0.5 0.3-0.2 0.1-0.5 0.3-0.2 0.1-0.4 0.3-0.3 0.1-0.5 0.3-0.3 0.1-0.5 0.2-0.3 0.2-0.5 0.3-0.2 0.2-0.5 0.3-0.2 0.2-0.5 0.3-0.2 0.1-0.5 0.3-0.2 0.1-0.4 0.3-0.3 0.1-0.5 0.2-0.3 0.2-0.5 0.3-0.3 0.2-0.5 0.3-0.2 0.2-0.5 0.3-0.2 0.1-0.5 0.3-0.2 0.1-0.5 0.3-0.2 0.1-0.4 0.3-0.3 0.1-0.5 0.2-0.3 0.2-0.5 0.3-0.3 0.2-0.5 0.3-0.2 0.2-0.5 0.3-0.2 0.1-0.5 0.3-0.2 0.1-0.5 0.3-0.2 0.1-0.4 0.2-0.3 0.2-0.5 0.3-0.3 0.2-0.5 0.3-0.3 0.2-0.5 0.3-0.2 0.1-0.5 0.3-0.2 0.1-0.5 0.3-0.2 0.1-0.4 0.3-0.3 0.1-0.5 0.2-0.3 0.2-0.5 0.3-0.3 0.2-0.5 0.3-0.2 0.2-0.5 0.3-0.2 0.1-0.5 0.3-0.2 0.1-0.5 0.3-0.2 0.1-0.4 0.2-0.3 0.2-0.5 0.3-0.3 0.2-0.5 0.3-0.3 0.2-0.5 0.3-0.2 0.1-0.5 0.3-0.2 0.1-0.5 0.3-0.2 0.1-0.4 0.3-0.3 0.1-0.5 0.2-0.3 0.2-0.5 0.3-0.3 0.2-0.5 0.3-0.2 0.1-0.5 0.3-0.2 0.1-0.5 0.3-0.2 0.1-0.5 0.3-0.2 0.1-0.4 0.2-0.3 0.2-0.5 0.3-0.3 0.2-0.5 0.3-0.3 0.2-0.5 0.3-0.2 0.1-0.5 0.3-0.2 0.1-0.5 0.3-0.2 0.1-0.5 0.3-0.2 0.1-0.4 0.2-0.3 0.2-0.5 0.3-0.3 0.2-0.5 0.3-0.3 0.1-0.5 0.3-0.2 0.1-0.5 0.3-0.2 0.1-0.5 0.3-0.2 0.1-0.5 0.2-0.2 0.2-0.4 0.3-0.3 0.2-0.5 0.3-0.3 0.2-0.5 0.3-0.3 0.1-0.5 0.3-0.2 0.1-0.5 0.3-0.2 0.1-0.5 0.3-0.2 0.1-0.5 0.2-0.2 0.2-0.4 0.3-0.3 0.2-0.5 0.3-0.3 0.1-0.5 0.3-0.3 0.1-0.5 0.3-0.2 0.1-0.5 0.3-0.2 0.1-0.5 0.2-0.2 0.2-0.5 0.3-0.2 0.2-0.4 0.3-0.3 0.2-0.5 0.3-0.3 0.1-0.5 0.3-0.3 0.1-0.5 0.3-0.2 0.1-0.5 0.3-6.6 3.8-12.4 9.1 29.3 23.6 35 79.2 1.8 16.6 3.5 56.7 1.8 40.1 4 61.1 2.2 21 16.2 33.2 0.8 0.7 1.6 1.4-0.1 0.1-0.2 0.2 0-0.1-0.1-0.2-0.2 0.2-0.3 0.5-0.1-0.1-0.2-0.2-0.2 0.2-0.3 0.5-0.1-0.1-0.2-0.2-0.2 0.2-0.3 0.5-0.1-0.2-0.2-0.3-0.1 0.3-0.3 0.5-0.1-0.1-0.2-0.2-0.1 0.3-0.3 0.5-0.1-0.1-0.1-0.2-0.2 0.3-0.4 0.5 0-0.1-0.1-0.2-0.2 0.2-0.4 0.5 0-0.1-0.1-0.2-0.2 0.2-0.3 0.5-0.1-0.1-0.2-0.2-0.2 0.2-0.3 0.5-0.1-0.1-0.2-0.3-0.2 0.3-0.3 0.5-0.1-0.1-0.2-0.2-0.1 0.3-0.3 0.5-0.1-0.1-0.2-0.2-0.1 0.3-0.3 0.5-0.1-0.1-0.1-0.2-0.2 0.2-0.4 0.5-0.1-0.1-0.1-0.2-0.2 0.2-0.4 0.5 0-0.1-0.1-0.2-0.2 0.2-0.4 0.5 0-0.1-0.1-0.2-0.2 0.2-0.3 0.5-0.1-0.2-0.2-0.3-0.2 0.3-0.3 0.5-0.1-0.1-0.2-0.2-0.2 0.3-0.3 0.5-0.1-0.1-0.2-0.2-0.1 0.3-0.3 0.5-0.1-0.1-0.2-0.2-0.1 0.2-0.3 0.5-0.1-0.1-0.1-0.2-0.2 0.2-0.4 0.5-0.1-0.1-0.1-0.2-0.2 0.2-0.4 0.5 0-0.1-0.1-0.3-0.2 0.3-0.4 0.5 0-0.1-0.1-0.2-0.2 0.3-0.3 0.5-0.1-0.1-0.2-0.2-0.2 0.3-0.3 0.5-0.1-0.1-0.2-0.2-0.2 0.2-0.3 0.5-0.1-0.1-0.2-0.2-0.1 0.2-0.3 0.5-0.1-0.1-0.2-0.2-0.1 0.2-0.3 0.5-0.1-0.1-0.1-0.2-0.2 0.2-0.4 0.4-0.1-0.1-0.1-0.2-0.2 0.3-0.4 0.5 0-0.1-0.1-0.2-0.2 0.3-0.4 0.5 0-0.1-0.1-0.2-0.2 0.3-0.3 0.5-0.1-0.1-0.2-0.2-0.2 0.2-0.3 0.5-0.1-0.1-0.2-0.2-0.1 0.2-0.3 0.5-0.1-0.1-0.2-0.2-0.1 0.2-0.3 0.5-0.1-0.1-0.1-0.3-0.2 0.3-0.4 0.5-0.1-0.1-0.1-0.2-0.2 0.3-0.4 0.5 0-0.1-0.1-0.2-0.2 0.3-0.4 0.5 0-0.1-0.1-0.2-0.2 0.2-0.3 0.5-0.1-0.1-0.2-0.2-0.2 0.2-0.3 0.5-0.1-0.1-0.2-0.2-0.2 0.2-0.3 0.5-0.1-0.1-0.2-0.2-0.1 0.2-0.3 0.4-0.1-0.1-0.2-0.2-0.1 0.3-0.3 0.5-0.1-0.1-0.1-0.2-0.2 0.3-0.4 0.5-0.1-0.1-0.1-0.2-0.2 0.3-0.4 0.5 0-0.1-0.1-0.2-0.2 0.2-0.4 0.5 0-0.1-0.1-0.2-0.2 0.2-0.3 0.5-0.1-0.1-0.2-0.2-0.2 0.2-0.3 0.5-0.1-0.1-0.2-0.3-0.2 0.3-0.3 0.5-0.1-0.1-0.2-0.2-0.1 0.3-0.3 0.5-0.1-0.1-0.2-0.2-0.1 0.3-0.3 0.5-0.1-0.1-0.1-0.2-0.2 0.2-0.4 0.5-0.1-0.1-0.1-0.2-0.2 0.2-0.4 0.5 0-0.1-0.1-0.2-0.2 0.2-0.4 0.5 0-0.1-0.1-0.2-0.2 0.2-0.3 0.4-0.1-0.1-0.2-0.2-0.2 0.3-0.3 0.5-0.1-0.1-0.2-0.2-0.1 0.3-0.3 0.5-0.1-0.1-0.2-0.2-0.1 0.3-0.3 0.5-0.1-0.1-0.1-0.2-0.2 0.2-0.4 0.5-0.1-0.1-0.1-0.2-0.2 0.2-0.4 0.5 0-0.1-0.1-0.2-0.2 0.2-0.4 0.5 0-0.1-0.1-0.3-0.2 0.3-0.3 0.5-0.1-0.1-0.2-0.2-0.2 0.3-0.3 0.5-0.1-0.1-0.2-0.2-0.2 0.3-0.3 0.5-0.1-0.1-0.2-0.2-0.1 0.2-0.3 0.5-0.1-0.1-0.2-0.2-0.1 0.2-0.3 0.5-0.1-0.1-0.1-0.2-0.2 0.2-0.4 0.5-0.1-0.1-0.1-0.2-0.2 0.2-0.4 0.4 0-0.1-0.1-0.2-0.2 0.3-0.4 0.5 0-0.1-0.1-0.2-0.2 0.3-0.3 0.5-0.1-0.1-0.2-0.2-0.2 0.3-0.3 0.5-0.1-0.1-0.2-0.2-0.2 0.2-0.3 0.5-0.1-0.1-0.2-0.2-0.1 0.2-0.3 0.5-0.1-0.1-0.2-0.2-0.1 0.2-0.3 0.5-0.1-0.1-0.1-0.3-0.2 0.3-0.4 0.5-0.1-0.1-0.1-0.2-16.2 23.7-16.2 45.3 0 21.7 20.1 35.1 20.2 13.3 51.3 13.3 33.7 0 62.3-17.1 0.3-0.2 0.5-0.3 0.3-0.2 0.5-0.3 0.2-0.1 0.5-0.3 0.2-0.1 0.5-0.3 0.2-0.1 0.4-0.3 0.3-0.1 0.5-0.2 0.3-0.2 0.5-0.3 0.3-0.2 0.5-0.3 0.2-0.1 0.5-0.3 0.2-0.1 0.5-0.3 0.2-0.1 0.5-0.3 0.2-0.1 0.4-0.2 0.3-0.2 0.5-0.3 0.3-0.2 0.5-0.3 0.3-0.2 0.5-0.3 0.2-0.1 0.5-0.3 0.2-0.1 0.5-0.3 0.2-0.1 0.5-0.2 0.2-0.2 0.4-0.3 0.3-0.2 0.5-0.3 0.3-0.2 0.5-0.3 0.3-0.2 0.5-0.3 0.2-0.1 0.5-0.3 0.2-0.1 0.5-0.3 0.2-0.1 0.5-0.2 0.2-0.2 0.4-0.3 0.3-0.2 0.5-0.3 0.3-0.2 0.5-0.3 0.2-0.1 0.5-0.3 0.2-0.1 0.5-0.3 0.2-0.1 0.5-0.2 0.2-0.2 0.4-0.3 0.3-0.2 0.5-0.3 0.3-0.2 0.5-0.3 0.3-0.1 0.5-0.3 0.2-0.1 0.5-0.3 0.2-0.1 0.5-0.3 0.2-0.1 0.5-0.2 0.2-0.2 0.4-0.3 0.3-0.2 0.5-0.3 0.3-0.2 0.5-0.3 0.3-0.1 0.5-0.3 0.2-0.1 0.5-0.3 0.2-0.1 0.5-0.2 0.2-0.2 0.5-0.3 0.2-0.2 0.4-0.3 0.3-0.2 0.5-0.3 0.3-0.1 0.5-0.3 0.3-0.1 0.5-0.3 0.2-0.1 0.5-0.3 0.2-0.1 0.5-0.2 0.2-0.2 0.5-0.3 0.2-0.2 0.4-0.3 0.3-0.2 0.5-0.3 0.3-0.1 0.5-0.3 0.3-0.1 0.5-0.3 0.2-0.1 0.5-0.2 0.2-0.2 0.5-0.3 0.2-0.2 0.4-0.3 0.3-0.2 0.5-0.3 0.3-0.1 0.5-0.3 0.3-0.1 0.5-0.3 0.2-0.1 0.5-0.3 0.2-0.1 0.5-0.2 0.2-0.2 0.5-0.3 0.2-0.2 0.4-0.3 0.3-0.2 0.5-0.3 0.3-0.1 0.5-0.3 0.2-0.1 0.5-0.3 0.2-0.1 0.5-0.2 0.2-0.2 0.5-0.3 0.2-0.2 0.5-0.3 0.2-0.2 0.4-0.3 0.3-0.1 0.5-0.3 0.3-0.1 0.5-0.3 0.3-0.1 0.5-0.3 0.2-0.1 0.5-0.2 0.2-0.2 0.5-0.3 0.2-0.2 0.4-0.3 0.3-0.2 0.5-0.3 0.3-0.1 0.5-0.3 0.3-0.1 0.5-0.3 0.2-0.1 0.5-0.2 0.2-0.2 0.5-0.3 0.2-0.2 0.5-0.3 0.2-0.2 0.4-0.3 0.3-0.1 0.5-0.3 0.3-0.1 0.5-0.3 0.3-0.1 0.5-0.3 0.2-0.1 0.5-0.2 0.2-0.2 0.5-0.3 0.2-0.2 0.5-0.3 0.2-0.2 0.4-0.3 0.3-0.1 0.5-0.3 0.3-0.1 0.5-0.3 0.3-0.1 0.5-0.2 0.2-0.2 0.5-0.3 0.2-0.2 0.5-0.3 0.2-0.2 0.5-0.3 0.2-0.1 0.4-0.3 58.8-34.8 96.3-141.6 0.9-3.1 7.5-21 35.9-98.1 35.9-137 0-49.1-42.5-49.1zm-193.5 290.2q20.5 0 41.1-7.4-4 10.6-9.3 18.9-19.6-0.1-35.1-11.6 1.6 0.1 3.3 0.1z"/><path class="d" d="m225.1 504.6c-21.2 0-39-4.6-52.9-13.8-14.3-9.5-21.5-22.1-21.5-37.6 0-15.4 5.6-30.8 16.7-47 0.6-0.8 1.5-1.3 2.5-1.3 1 0 1.9 0.5 2.5 1.3 13.5 19.2 29.9 28.5 50.1 28.5 11.3 0 21.9-3.8 31.7-11.2 8.5-6.5 15.7-16.1 21.3-28.6-12 3.7-24 5.5-35.9 5.5-14.4 0-26.7-4.4-36.6-13-9.9-8.6-15.7-20.5-17.2-35.2-1.5-14-2.8-34.6-4-61.3-1.1-26.4-2.3-45.4-3.5-56.5-3.7-36-15.1-62-33.9-77.2-0.7-0.5-1.1-1.4-1.1-2.2-0.1-0.9 0.3-1.8 0.9-2.3 14.3-13.1 32.4-19.7 53.8-19.7 11.9 0 22.5 3.2 31.5 9.6 8.8 6.2 16 14.5 21.3 24.7 5.2 10 9.5 23 12.8 38.6 5 25.8 7.5 61.1 7.5 104.8 0 10-0.4 21.8-1.2 35.1h20.2c29.3-79.4 44.2-134.2 44.2-162.9 0-9.4-2.1-18.4-6.3-26.7-0.7-1.4-0.2-3.1 1.1-3.9 20.9-12.8 39.4-19.3 55.1-19.3 15.6 0 26.5 4.5 34.1 13.3 7.5 8.7 11.4 21.8 11.4 38.8 0 26.2-12.2 72.6-36.1 138-4.4 11.9-6.9 18.9-7.4 20.9q0 0-0.1 0.1c-18.6 53-41.5 93.4-68 120-26.9 26.9-58.1 40.5-93 40.5z"/><path class="c" d="m384.2 130c-16.3 0-35.3 6.7-56.6 19.8-2.7 1.6-3.7 5-2.3 7.8 4 7.8 6 16.4 6 25.3 0 28.1-14.6 81.9-43.3 159.9h-14.9c0.7-12 1-22.8 1-32.1 0-43.9-2.5-79.3-7.6-105.3q0 0 0-0.1c-3.3-15.9-7.7-29.2-13-39.4-5.6-10.6-13-19.3-22.3-25.8-9.4-6.7-20.6-10.1-33.2-10.1-22.2 0-41 6.9-55.8 20.4-1.3 1.2-2 2.9-1.9 4.7 0 1.7 0.8 3.4 2.2 4.5 18.2 14.6 29.2 39.9 32.8 75.1 1.2 11 2.4 30 3.5 56.4 1.2 26.7 2.5 47.3 4 61.4 1.6 15.5 7.7 28 18.2 37.2 10.4 9.1 23.4 13.7 38.6 13.7 10 0 20.2-1.2 30.2-3.8-4.8 9.2-10.7 16.4-17.4 21.5-9.4 7.1-19.2 10.6-29.9 10.6-19.1 0-34.7-8.9-47.6-27.3-1.2-1.5-3-2.5-5-2.5q0 0 0 0c-2 0-3.8 1-4.9 2.6-11.5 16.7-17.3 33.1-17.3 48.7 0 16.5 7.7 30 22.8 40.1 14.4 9.5 32.8 14.3 54.6 14.3 17.9 0 34.9-3.5 50.8-10.4 15.7-6.9 30.6-17.3 44.3-31 13.5-13.5 26.1-30.6 37.6-50.8 11.3-20 21.8-43.7 31.2-70.3q0-0.2 0.1-0.3c0.3-1.3 1.9-5.9 7.3-20.6 12-32.7 21.1-60.9 27.1-83.8 6.2-23.6 9.2-41.7 9.2-55.3 0-45.5-26.4-55.1-48.5-55.1zm0 6.1q42.5 0 42.5 49 0 39-36 137-6.5 18-7.4 21-55.6 158.5-158.2 158.5-31.1 0-51.2-13.3-20.2-13.4-20.2-35.1 0-21.6 16.2-45.3 21.1 29.8 52.6 29.8 18 0 33.5-11.8 15.6-11.9 24.8-35.9-20.6 7.4-41.2 7.4-20.6 0-34.6-12.2-14-12.3-16.2-33.3-2.2-21-4-61.1-1.7-40-3.5-56.7-5.7-55.6-35-79.2 20.6-18.8 51.7-18.8 17.1 0 29.8 8.9 12.7 9 20.3 23.7 7.7 14.6 12.5 37.8 7.5 38.6 7.5 104.2 0 16.2-1.3 38.1h25.4q45.1-121.7 45.1-165.9 0-14.9-6.6-28 30.7-18.8 53.5-18.8z"/></svg>